<svg width="25" height="24" viewBox="0 0 25 24" fill="none" xmlns="http://www.w3.org/2000/svg">
<path d="M12.371 0C5.63811 0 0.177429 5.373 0.177429 12C0.177429 17.302 3.67088 21.8 8.5168 23.387C9.12546 23.498 9.32259 23.126 9.32259 22.81V20.576C5.93075 21.302 5.22454 19.16 5.22454 19.16C4.66974 17.773 3.87004 17.404 3.87004 17.404C2.76348 16.659 3.95438 16.675 3.95438 16.675C5.17882 16.759 5.82304 17.912 5.82304 17.912C6.9103 19.746 8.67532 19.216 9.37136 18.909C9.48009 18.134 9.79611 17.604 10.1457 17.305C7.43767 17 4.59048 15.971 4.59048 11.374C4.59048 10.063 5.06704 8.993 5.84641 8.153C5.72041 7.85 5.30278 6.629 5.9653 4.977C5.9653 4.977 6.98956 4.655 9.31954 6.207C10.292 5.941 11.3345 5.808 12.371 5.803C13.4074 5.808 14.451 5.941 15.4255 6.207C17.7534 4.655 18.7756 4.977 18.7756 4.977C19.4392 6.63 19.0215 7.851 18.8955 8.153C19.678 8.993 20.1505 10.064 20.1505 11.374C20.1505 15.983 17.2982 16.998 14.5831 17.295C15.02 17.667 15.4194 18.397 15.4194 19.517V22.81C15.4194 23.129 15.6145 23.504 16.2333 23.386C21.0751 21.797 24.5645 17.3 24.5645 12C24.5645 5.373 19.1049 0 12.371 0Z" fill="white"/>
</svg>
