<svg width="75" height="75" viewBox="0 0 75 75" fill="none" xmlns="http://www.w3.org/2000/svg">
<path d="M23.2828 32.1922C23.486 30.9094 23.8258 29.6641 24.3031 28.4563C24.7805 27.2485 25.3836 26.1063 26.1117 25.0313L26.2672 24.8024L26.1781 24.5407C25.9578 23.8938 25.7586 23.2367 25.5852 22.5883C25.0141 20.4547 24.9742 19.4039 24.9391 18.4766C24.9071 17.6211 24.8797 16.8821 24.4406 15.6321L24.4188 15.5696C24.3774 15.4516 24.2922 15.2125 24.2664 15.0563C24.6414 15.0813 25.2805 15.3742 25.5953 15.518C27.2 16.2531 28.1414 17.3985 28.5594 18.0156C28.7227 18.2555 28.8703 18.5047 29.0031 18.7625L29.2914 19.3211L29.811 18.968C30.3594 18.5961 31.2641 18.1453 32.4578 18.1086C32.5094 18.1071 32.5594 18.1063 32.6102 18.1063C33.8821 18.1063 34.8469 18.6039 35.3086 18.9008L35.5602 19.0633L35.8344 18.9414C36.4938 18.6508 37.1336 18.3227 37.7539 17.9555C38.4985 17.5149 39.0414 17.1289 39.5211 16.7891C40.2516 16.2696 40.7797 15.8946 41.6188 15.6156C41.9188 15.5164 42.225 15.4406 42.5367 15.3883C42.3907 15.8094 42.2235 16.2211 42.0336 16.6235C41.5914 17.5641 41.2133 18.0602 40.8805 18.4985C40.4899 19.011 40.1203 19.4953 39.8407 20.4516C39.7625 20.7172 39.7086 20.9586 39.6516 21.2141C39.5399 21.7141 39.4242 22.2305 39.1047 23.0133C38.9633 23.361 38.8899 23.4953 38.836 23.593C38.7758 23.7024 38.7196 23.8047 38.65 24.0227C38.3055 25.1055 38.5852 25.9664 38.8102 26.6586C38.9883 27.2047 39.1282 27.636 39.0055 28.1149C38.7305 29.1907 37.1891 29.7821 37.1235 29.8071C36.7696 29.9399 36.4086 30.0047 36.0196 30.0047C35.0594 30.0047 34.0446 29.6 33.0625 29.2078C31.6289 28.6352 30.8282 28.0571 30.1844 27.593C29.5414 27.1282 29.0305 26.7602 28.293 26.7602C28.1688 26.761 28.0453 26.7711 27.9227 26.7907C26.5711 27.0063 25.7391 28.3024 24.0813 30.8844C23.8055 31.3141 23.5391 31.75 23.2828 32.1922Z" fill="white"/>
<path d="M29.5601 49.1007C29.2219 46.6601 28.4187 44.5742 27.168 42.8922C26.8187 42.4211 26.4391 41.989 26.0726 41.5703C25.2187 40.5968 24.3359 39.5898 23.675 37.9468C23.3734 37.1945 23.157 36.4187 23.0266 35.6187C24.0133 34.2593 24.9406 32.8703 25.7859 31.4851C25.9789 31.1695 26.1531 30.8765 26.3141 30.6078C27.1867 29.1445 27.5625 28.5484 28.1148 28.4703C28.1492 28.4656 28.1844 28.4625 28.2195 28.4625C28.4461 28.4625 28.6555 28.6086 29.1476 28.9695C29.4469 29.189 29.8195 29.4617 30.3234 29.7781C31.6812 30.6297 33.7805 31.6445 36.0695 31.6445C36.5062 31.6453 36.9398 31.6062 37.3687 31.5273C37.5398 31.4961 37.7102 31.457 37.8789 31.4117C37.6289 32.0625 37.3312 32.6898 36.9875 33.2961C35.1484 36.5312 32.3766 38.375 30.375 39.3523L29.9914 39.5398L30.0726 39.9586C30.4734 42.0164 30.5914 44.1054 30.4226 46.1687C30.3469 47.1023 30.2133 48.0273 30.0219 48.9445L29.5601 49.1007Z" fill="white"/>
<path d="M58.3985 57.7086C57.1454 55.9446 55.7384 54.3149 54.1759 52.818C51.2142 49.9844 47.8579 46.7727 42.9259 46.2102C42.404 46.1516 41.8798 46.1227 41.354 46.1227C39.2532 46.1227 37.4212 46.5672 36.0837 46.8922C34.6087 47.2508 33.1774 47.7391 31.7907 48.3571C31.9579 47.6985 32.0868 47.0321 32.1759 46.3578C32.4376 44.3727 32.3524 42.361 31.9235 40.3711C33.1423 39.6649 34.2743 38.8407 35.3212 37.8977C36.5516 36.7868 38.0837 35.4039 39.004 33.0993C39.1665 32.6914 39.3032 32.275 39.4126 31.85C40.1251 32.5914 40.9102 33.2453 41.7681 33.8125C43.8282 35.1703 45.5642 35.4938 47.0954 35.7797C47.7212 35.8961 48.3118 36.0063 48.9009 36.1774C56.6845 38.4438 59.4477 50.243 59.4517 53.0539C59.4532 54.4875 59.1149 55.7914 59.111 55.8047C58.9368 56.4625 58.6993 57.0977 58.3985 57.7086Z" fill="white"/>
<path d="M30.3327 59.9063C24.6718 59.9063 20.2945 58.3992 17.321 55.4266C16.6327 54.7375 16.0281 53.9805 15.507 53.1578C18.8531 53.0274 22.1671 52.6274 25.4491 51.9578C29.6054 51.1086 32.3413 50.0977 34.5406 49.2852C36.7773 48.4586 38.3929 47.8617 40.4351 47.793C40.5601 47.7891 40.6874 47.7867 40.8163 47.7867C45.7796 47.7867 51.0445 51.1414 56.4827 57.7641C53.9327 57.0485 51.3468 56.6758 48.7726 56.6563L48.5538 56.6555C44.8046 56.6555 42.6249 57.4063 40.3179 58.2008C38.2132 58.9258 36.0366 59.6758 32.4445 59.8461C31.9156 59.8719 31.1913 59.9063 30.3327 59.9063Z" fill="white"/>
</svg>
